<svg width="36" height="26" viewBox="0 0 36 26" fill="none" xmlns="http://www.w3.org/2000/svg">
<path d="M1.43188 22C1.43188 22.5523 1.8796 23 2.43188 23C2.98417 23 3.43188 22.5523 3.43188 22H1.43188ZM16.2554 22C16.2554 22.5523 16.7031 23 17.2554 23C17.8077 23 18.2554 22.5523 18.2554 22H16.2554ZM14.1377 15.647C14.1377 16.1993 14.5855 16.647 15.1377 16.647C15.69 16.647 16.1377 16.1993 16.1377 15.647H14.1377ZM24.726 16.1765C24.726 16.7287 25.1737 17.1765 25.726 17.1765C26.2783 17.1765 26.726 16.7287 26.726 16.1765H24.726ZM28.6471 7.17647C28.0948 7.17647 27.6471 7.62419 27.6471 8.17647C27.6471 8.72876 28.0948 9.17647 28.6471 9.17647V7.17647ZM35 9.17647C35.5523 9.17647 36 8.72876 36 8.17647C36 7.62419 35.5523 7.17647 35 7.17647V9.17647ZM32.8236 5C32.8236 4.44772 32.3759 4 31.8236 4C31.2713 4 30.8236 4.44772 30.8236 5H32.8236ZM30.8236 11.3529C30.8236 11.9052 31.2713 12.3529 31.8236 12.3529C32.3759 12.3529 32.8236 11.9052 32.8236 11.3529H30.8236ZM3.43188 22V20.9412H1.43188V22H3.43188ZM3.43188 20.9412C3.43188 17.4001 6.30253 14.5294 9.84365 14.5294V12.5294C5.19796 12.5294 1.43188 16.2955 1.43188 20.9412H3.43188ZM9.84365 14.5294C13.3848 14.5294 16.2554 17.4001 16.2554 20.9412H18.2554C18.2554 16.2955 14.4893 12.5294 9.84365 12.5294V14.5294ZM16.2554 20.9412V22H18.2554V20.9412H16.2554ZM16.1377 15.647C16.1377 13.2755 18.0603 11.3529 20.4319 11.3529V9.35293C16.9557 9.35293 14.1377 12.1709 14.1377 15.647H16.1377ZM20.4319 11.3529C22.8034 11.3529 24.726 13.2755 24.726 15.647H26.726C26.726 12.1709 23.908 9.35293 20.4319 9.35293V11.3529ZM24.726 15.647V16.1765H26.726V15.647H24.726ZM9.84365 14.5294C12.735 14.5294 15.079 12.1855 15.079 9.29412H13.079C13.079 11.0809 11.6304 12.5294 9.84365 12.5294V14.5294ZM15.079 9.29412C15.079 6.40274 12.735 4.05882 9.84367 4.05882V6.05882C11.6304 6.05882 13.079 7.50732 13.079 9.29412H15.079ZM9.84367 4.05882C6.9523 4.05882 4.60838 6.40274 4.60838 9.29412H6.60838C6.60838 7.50731 8.05687 6.05882 9.84367 6.05882V4.05882ZM4.60838 9.29412C4.60838 12.1854 6.95226 14.5294 9.84365 14.5294V12.5294C8.05686 12.5294 6.60838 11.0809 6.60838 9.29412H4.60838ZM20.4319 11.3529C22.7385 11.3529 24.6083 9.48306 24.6083 7.17647H22.6083C22.6083 8.3785 21.6339 9.35293 20.4319 9.35293V11.3529ZM24.6083 7.17647C24.6083 4.86988 22.7385 3 20.4319 3V5C21.6339 5 22.6083 5.97443 22.6083 7.17647H24.6083ZM20.4319 3C18.1252 3 16.2554 4.86989 16.2554 7.17647H18.2554C18.2554 5.97443 19.2298 5 20.4319 5V3ZM16.2554 7.17647C16.2554 9.48306 18.1252 11.3529 20.4319 11.3529V9.35293C19.2298 9.35293 18.2554 8.3785 18.2554 7.17647H16.2554ZM28.6471 9.17647H31.8236V7.17647H28.6471V9.17647ZM35 7.17647H31.8236V9.17647H35V7.17647ZM32.8236 8.17647V5H30.8236V8.17647H32.8236ZM30.8236 8.17647V11.3529H32.8236V8.17647H30.8236Z" fill="white"/>
</svg>
