<svg width="40" height="40" viewBox="0 0 40 40" fill="none" xmlns="http://www.w3.org/2000/svg">
<path opacity="0.4" d="M20 40C31.0456 40 40 31.0458 40 20C40 8.95431 31.0456 0 20 0C8.9543 0 0 8.95431 0 20C0 31.0458 8.9543 40 20 40Z" fill="#B1B1B1"/>
<path d="M20 9.85986C15.86 9.85986 12.5 13.2199 12.5 17.3598C12.5 21.4198 15.68 24.7198 19.9 24.8398H20.08H20.22H20.26C24.3 24.6998 27.48 21.4198 27.5 17.3598C27.5 13.2199 24.14 9.85986 20 9.85986Z" fill="#B1B1B1"/>
<path d="M33.5614 34.7C30.0014 37.98 25.2414 40 20.0014 40C14.7614 40 10.0014 37.98 6.4414 34.7C6.9214 32.88 8.2214 31.22 10.1214 29.94C15.5814 26.3 24.4614 26.3 29.8814 29.94C31.8014 31.22 33.0814 32.88 33.5614 34.7Z" fill="#B1B1B1"/>
</svg>
