<svg width="18" height="18" viewBox="0 0 18 18" fill="none" xmlns="http://www.w3.org/2000/svg">
<path d="M12.3237 5.22703L11.3878 3.74836C11.1906 3.51844 10.9202 3.375 10.6172 3.375H7.38281C7.07977 3.375 6.80941 3.51844 6.61219 3.74836L5.67633 5.22703C5.4791 5.4573 5.22492 5.625 4.92188 5.625H2.8125C2.51413 5.625 2.22798 5.74353 2.017 5.95451C1.80603 6.16548 1.6875 6.45163 1.6875 6.75V13.5C1.6875 13.7984 1.80603 14.0845 2.017 14.2955C2.22798 14.5065 2.51413 14.625 2.8125 14.625H15.1875C15.4859 14.625 15.772 14.5065 15.983 14.2955C16.194 14.0845 16.3125 13.7984 16.3125 13.5V6.75C16.3125 6.45163 16.194 6.16548 15.983 5.95451C15.772 5.74353 15.4859 5.625 15.1875 5.625H13.1133C12.8092 5.625 12.5209 5.4573 12.3237 5.22703Z" stroke="white" stroke-width="1.5" stroke-linecap="round" stroke-linejoin="round"/>
<path d="M9 12.375C10.5533 12.375 11.8125 11.1158 11.8125 9.5625C11.8125 8.0092 10.5533 6.75 9 6.75C7.4467 6.75 6.1875 8.0092 6.1875 9.5625C6.1875 11.1158 7.4467 12.375 9 12.375Z" stroke="white" stroke-width="1.5" stroke-miterlimit="10"/>
<path d="M4.35938 5.55469V4.78125H3.51562V5.55469" stroke="white" stroke-width="1.5" stroke-linecap="round" stroke-linejoin="round"/>
</svg>
