<svg width="27" height="20" viewBox="0 0 27 20" fill="none" xmlns="http://www.w3.org/2000/svg">
<path d="M0.977905 19C0.977905 19.5523 1.42562 20 1.97791 20C2.53019 20 2.97791 19.5523 2.97791 19H0.977905ZM15.8014 19C15.8014 19.5523 16.2492 20 16.8014 20C17.3537 20 17.8014 19.5523 17.8014 19H15.8014ZM13.6838 12.6471C13.6838 13.1993 14.1315 13.6471 14.6838 13.6471C15.2361 13.6471 15.6838 13.1993 15.6838 12.6471H13.6838ZM24.272 13.1765C24.272 13.7288 24.7198 14.1765 25.272 14.1765C25.8243 14.1765 26.272 13.7288 26.272 13.1765H24.272ZM2.97791 19V17.9412H0.977905V19H2.97791ZM2.97791 17.9412C2.97791 14.4 5.84855 11.5294 9.38967 11.5294V9.5294C4.74399 9.5294 0.977905 13.2955 0.977905 17.9412H2.97791ZM9.38967 11.5294C12.9308 11.5294 15.8014 14.4 15.8014 17.9412H17.8014C17.8014 13.2955 14.0354 9.5294 9.38967 9.5294V11.5294ZM15.8014 17.9412V19H17.8014V17.9412H15.8014ZM15.6838 12.6471C15.6838 10.2755 17.6064 8.35294 19.9779 8.35294V6.35294C16.5018 6.35294 13.6838 9.17094 13.6838 12.6471H15.6838ZM19.9779 8.35294C22.3495 8.35294 24.272 10.2755 24.272 12.6471H26.272C26.272 9.17094 23.454 6.35294 19.9779 6.35294V8.35294ZM24.272 12.6471V13.1765H26.272V12.6471H24.272ZM9.38967 11.5294C12.281 11.5294 14.625 9.18545 14.625 6.29411H12.625C12.625 8.08087 11.1764 9.5294 9.38967 9.5294V11.5294ZM14.625 6.29411C14.625 3.40273 12.281 1.05882 9.38967 1.05882V3.05882C11.1764 3.05882 12.625 4.50732 12.625 6.29411H14.625ZM9.38967 1.05882C6.4983 1.05882 4.15438 3.40274 4.15438 6.29411H6.15438C6.15438 4.50731 7.60287 3.05882 9.38967 3.05882V1.05882ZM4.15438 6.29411C4.15438 9.18544 6.49829 11.5294 9.38967 11.5294V9.5294C7.60287 9.5294 6.15438 8.08088 6.15438 6.29411H4.15438ZM19.9779 8.35294C22.2846 8.35294 24.1544 6.48305 24.1544 4.17647H22.1544C22.1544 5.37851 21.18 6.35294 19.9779 6.35294V8.35294ZM24.1544 4.17647C24.1544 1.86989 22.2846 0 19.9779 0V2C21.18 2 22.1544 2.97443 22.1544 4.17647H24.1544ZM19.9779 0C17.6713 0 15.8014 1.86989 15.8014 4.17647H17.8014C17.8014 2.97443 18.7758 2 19.9779 2V0ZM15.8014 4.17647C15.8014 6.48306 17.6713 8.35294 19.9779 8.35294V6.35294C18.7759 6.35294 17.8014 5.37851 17.8014 4.17647H15.8014Z" fill="white"/>
<path d="M0.977905 19C0.977905 19.5523 1.42562 20 1.97791 20C2.53019 20 2.97791 19.5523 2.97791 19H0.977905ZM15.8014 19C15.8014 19.5523 16.2492 20 16.8014 20C17.3537 20 17.8014 19.5523 17.8014 19H15.8014ZM13.6838 12.6471C13.6838 13.1993 14.1315 13.6471 14.6838 13.6471C15.2361 13.6471 15.6838 13.1993 15.6838 12.6471H13.6838ZM24.272 13.1765C24.272 13.7288 24.7198 14.1765 25.272 14.1765C25.8243 14.1765 26.272 13.7288 26.272 13.1765H24.272ZM2.97791 19V17.9412H0.977905V19H2.97791ZM2.97791 17.9412C2.97791 14.4 5.84855 11.5294 9.38967 11.5294V9.5294C4.74399 9.5294 0.977905 13.2955 0.977905 17.9412H2.97791ZM9.38967 11.5294C12.9308 11.5294 15.8014 14.4 15.8014 17.9412H17.8014C17.8014 13.2955 14.0354 9.5294 9.38967 9.5294V11.5294ZM15.8014 17.9412V19H17.8014V17.9412H15.8014ZM15.6838 12.6471C15.6838 10.2755 17.6064 8.35294 19.9779 8.35294V6.35294C16.5018 6.35294 13.6838 9.17094 13.6838 12.6471H15.6838ZM19.9779 8.35294C22.3495 8.35294 24.272 10.2755 24.272 12.6471H26.272C26.272 9.17094 23.454 6.35294 19.9779 6.35294V8.35294ZM24.272 12.6471V13.1765H26.272V12.6471H24.272ZM9.38967 11.5294C12.281 11.5294 14.625 9.18545 14.625 6.29411H12.625C12.625 8.08087 11.1764 9.5294 9.38967 9.5294V11.5294ZM14.625 6.29411C14.625 3.40273 12.281 1.05882 9.38967 1.05882V3.05882C11.1764 3.05882 12.625 4.50732 12.625 6.29411H14.625ZM9.38967 1.05882C6.4983 1.05882 4.15438 3.40274 4.15438 6.29411H6.15438C6.15438 4.50731 7.60287 3.05882 9.38967 3.05882V1.05882ZM4.15438 6.29411C4.15438 9.18544 6.49829 11.5294 9.38967 11.5294V9.5294C7.60287 9.5294 6.15438 8.08088 6.15438 6.29411H4.15438ZM19.9779 8.35294C22.2846 8.35294 24.1544 6.48305 24.1544 4.17647H22.1544C22.1544 5.37851 21.18 6.35294 19.9779 6.35294V8.35294ZM24.1544 4.17647C24.1544 1.86989 22.2846 0 19.9779 0V2C21.18 2 22.1544 2.97443 22.1544 4.17647H24.1544ZM19.9779 0C17.6713 0 15.8014 1.86989 15.8014 4.17647H17.8014C17.8014 2.97443 18.7758 2 19.9779 2V0ZM15.8014 4.17647C15.8014 6.48306 17.6713 8.35294 19.9779 8.35294V6.35294C18.7759 6.35294 17.8014 5.37851 17.8014 4.17647H15.8014Z" fill="black" fill-opacity="0.2"/>
</svg>
