<svg width="26" height="20" viewBox="0 0 26 20" fill="none" xmlns="http://www.w3.org/2000/svg">
<path d="M1.24999 19V17.9412C1.24999 13.8477 4.56836 10.5294 8.66176 10.5294C12.7552 10.5294 16.0735 13.8477 16.0735 17.9412V19" stroke="#B1B1B1" stroke-width="2" stroke-linecap="round"/>
<path d="M13.9559 12.6471C13.9559 9.72322 16.3262 7.35294 19.25 7.35294C22.1738 7.35294 24.5441 9.72322 24.5441 12.6471V13.1765" stroke="#B1B1B1" stroke-width="2" stroke-linecap="round"/>
<path d="M8.66176 10.5294C11.0008 10.5294 12.8971 8.63315 12.8971 6.2941C12.8971 3.95501 11.0008 2.05881 8.66176 2.05881C6.32267 2.05881 4.42647 3.95501 4.42647 6.2941C4.42647 8.63315 6.32267 10.5294 8.66176 10.5294Z" stroke="#B1B1B1" stroke-width="2" stroke-linecap="round" stroke-linejoin="round"/>
<path d="M19.25 7.35294C21.0044 7.35294 22.4265 5.93078 22.4265 4.17647C22.4265 2.42216 21.0044 1 19.25 1C17.4956 1 16.0735 2.42216 16.0735 4.17647C16.0735 5.93078 17.4956 7.35294 19.25 7.35294Z" stroke="#B1B1B1" stroke-width="2" stroke-linecap="round" stroke-linejoin="round"/>
</svg>
