<svg width="26" height="21" viewBox="0 0 26 21" fill="none" xmlns="http://www.w3.org/2000/svg">
<path d="M0.602905 19.5C0.602905 20.0523 1.05062 20.5 1.60291 20.5C2.15519 20.5 2.60291 20.0523 2.60291 19.5H0.602905ZM15.4264 19.5C15.4264 20.0523 15.8742 20.5 16.4264 20.5C16.9787 20.5 17.4264 20.0523 17.4264 19.5H15.4264ZM13.3088 13.1471C13.3088 13.6993 13.7565 14.1471 14.3088 14.1471C14.8611 14.1471 15.3088 13.6993 15.3088 13.1471H13.3088ZM23.897 13.6765C23.897 14.2288 24.3448 14.6765 24.897 14.6765C25.4493 14.6765 25.897 14.2288 25.897 13.6765H23.897ZM2.60291 19.5V18.4412H0.602905V19.5H2.60291ZM2.60291 18.4412C2.60291 14.9 5.47355 12.0294 9.01467 12.0294V10.0294C4.36899 10.0294 0.602905 13.7955 0.602905 18.4412H2.60291ZM9.01467 12.0294C12.5558 12.0294 15.4264 14.9 15.4264 18.4412H17.4264C17.4264 13.7955 13.6604 10.0294 9.01467 10.0294V12.0294ZM15.4264 18.4412V19.5H17.4264V18.4412H15.4264ZM15.3088 13.1471C15.3088 10.7755 17.2314 8.85294 19.6029 8.85294V6.85294C16.1268 6.85294 13.3088 9.67094 13.3088 13.1471H15.3088ZM19.6029 8.85294C21.9745 8.85294 23.897 10.7755 23.897 13.1471H25.897C25.897 9.67094 23.079 6.85294 19.6029 6.85294V8.85294ZM23.897 13.1471V13.6765H25.897V13.1471H23.897ZM9.01467 12.0294C11.906 12.0294 14.25 9.68545 14.25 6.79411H12.25C12.25 8.58087 10.8014 10.0294 9.01467 10.0294V12.0294ZM14.25 6.79411C14.25 3.90273 11.906 1.55882 9.01467 1.55882V3.55882C10.8014 3.55882 12.25 5.00732 12.25 6.79411H14.25ZM9.01467 1.55882C6.1233 1.55882 3.77938 3.90274 3.77938 6.79411H5.77938C5.77938 5.00731 7.22787 3.55882 9.01467 3.55882V1.55882ZM3.77938 6.79411C3.77938 9.68544 6.12329 12.0294 9.01467 12.0294V10.0294C7.22787 10.0294 5.77938 8.58088 5.77938 6.79411H3.77938ZM19.6029 8.85294C21.9096 8.85294 23.7794 6.98305 23.7794 4.67647H21.7794C21.7794 5.87851 20.805 6.85294 19.6029 6.85294V8.85294ZM23.7794 4.67647C23.7794 2.36989 21.9096 0.5 19.6029 0.5V2.5C20.805 2.5 21.7794 3.47443 21.7794 4.67647H23.7794ZM19.6029 0.5C17.2963 0.5 15.4264 2.36989 15.4264 4.67647H17.4264C17.4264 3.47443 18.4008 2.5 19.6029 2.5V0.5ZM15.4264 4.67647C15.4264 6.98306 17.2963 8.85294 19.6029 8.85294V6.85294C18.4009 6.85294 17.4264 5.87851 17.4264 4.67647H15.4264Z" fill="white"/>
</svg>
