<svg width="26" height="26" viewBox="0 0 26 26" fill="none" xmlns="http://www.w3.org/2000/svg">
<path d="M19.5542 6.58667C17.8507 4.89047 15.5447 3.93816 13.1408 3.93816C10.7369 3.93816 8.43092 4.89047 6.7275 6.58667L5.41666 7.8975V4.745C5.41666 4.52951 5.33106 4.32285 5.17869 4.17048C5.02632 4.0181 4.81965 3.9325 4.60416 3.9325C4.38868 3.9325 4.18201 4.0181 4.02964 4.17048C3.87727 4.32285 3.79166 4.52951 3.79166 4.745V9.88C3.79165 10.0965 3.8769 10.3043 4.02897 10.4584C4.18104 10.6125 4.38769 10.7005 4.60416 10.7033H9.75C9.96549 10.7033 10.1721 10.6177 10.3245 10.4654C10.4769 10.313 10.5625 10.1063 10.5625 9.89083C10.5625 9.67534 10.4769 9.46868 10.3245 9.31631C10.1721 9.16393 9.96549 9.07833 9.75 9.07833H6.5L7.87583 7.735C9.27317 6.34047 11.1667 5.55727 13.1408 5.55727C15.115 5.55727 17.0085 6.34047 18.4058 7.735C25.1117 14.9825 15.1558 24.9708 7.87583 18.265C7.72349 18.1128 7.51698 18.0274 7.30166 18.0274C7.08635 18.0274 6.87984 18.1128 6.7275 18.265C6.65084 18.3397 6.58992 18.429 6.54832 18.5276C6.50673 18.6262 6.4853 18.7321 6.4853 18.8392C6.4853 18.9462 6.50673 19.0521 6.54832 19.1507C6.58992 19.2494 6.65084 19.3386 6.7275 19.4133C8.42842 21.1143 10.7354 22.0698 13.1408 22.0698C15.5463 22.0698 17.8532 21.1143 19.5542 19.4133C21.2551 17.7124 22.2107 15.4055 22.2107 13C22.2107 10.5945 21.2551 8.28759 19.5542 6.58667Z" fill="white"/>
<path d="M13 8.39583C12.7854 8.39864 12.5803 8.48514 12.4286 8.63691C12.2768 8.78868 12.1903 8.99372 12.1875 9.20833V13C12.1877 13.2154 12.2734 13.4219 12.4258 13.5742L15.1667 16.25C15.2417 16.326 15.3311 16.3862 15.4297 16.4271C15.5283 16.468 15.6341 16.4888 15.7408 16.4883C15.8835 16.4676 16.0181 16.4092 16.1307 16.3192C16.2434 16.2293 16.3301 16.1109 16.3819 15.9764C16.4338 15.8419 16.4489 15.696 16.4257 15.5537C16.4025 15.4114 16.3419 15.2778 16.25 15.1667L13.78 12.6967V9.20833C13.7775 8.99915 13.6955 8.79875 13.5507 8.64784C13.4058 8.49693 13.2089 8.40683 13 8.39583Z" fill="white"/>
</svg>
