<svg width="138" height="162" viewBox="0 0 138 162" fill="none" xmlns="http://www.w3.org/2000/svg">
<path d="M12 23.5L51.0197 7.45691L92.6657 133.677L40.7291 149.727L12 23.5Z" fill="url(#paint0_linear_598_2602)"/>
<path d="M50 7.99997L100 157" stroke="#75AE48" stroke-width="3" stroke-linecap="round"/>
<path d="M2.23752 61.3312L59.4494 90.5316L121.255 77.308L126.187 98.7777L136 133.5L122.5 149.5L105.115 155.389L85.7118 159.12L68.5274 158.484L53.2682 153.923L37.5025 145.863L31.0588 142.985L28.5458 140.988L24.5279 135.993L18.5053 125.999L12.2735 104.637L2.23752 61.3312Z" fill="url(#paint1_linear_598_2602)"/>
<path d="M119.944 72.5186L135.346 131.297" stroke="#75AE48" stroke-width="3" stroke-linecap="round"/>
<path d="M115.977 65.9953C122.108 68.5005 124.096 76.177 119.034 80.4485C114.837 83.9895 110.079 87.1465 104.873 89.8293C95.3867 94.7181 84.6879 97.8888 73.6797 99.0741C62.6715 100.259 51.6767 99.4243 41.6231 96.6394C31.5694 93.8545 22.7518 89.2015 15.914 83.0729C9.07623 76.9442 4.41896 69.5198 2.33507 61.4259C0.251191 53.332 0.801834 44.8061 3.94055 36.5675C7.07927 28.3288 12.714 20.6192 20.3693 14.0889C26.1377 9.16824 32.9257 5.02601 40.3924 1.84838C44.6113 0.0529374 49.3589 2.19064 51.26 6.36295C53.504 11.2878 50.8932 17.0104 46.1227 19.5661C42.9493 21.2662 40.0208 23.2496 37.4107 25.476C32.3923 29.757 28.6984 34.8111 26.6409 40.2119C24.5833 45.6127 24.2223 51.2019 25.5884 56.5079C26.9545 61.8138 30.0076 66.6809 34.4901 70.6986C38.9726 74.7162 44.753 77.7665 51.3437 79.5921C57.9343 81.4178 65.1419 81.9652 72.3584 81.1882C79.5748 80.4112 86.5885 78.3326 92.8075 75.1277C96.5586 73.1947 99.9542 70.8861 102.897 68.2805C106.254 65.3091 110.959 63.9456 115.109 65.6409L115.977 65.9953Z" fill="#E1F4B2"/>
<path d="M121.5 80C114.5 87 114.5 86.5 104.619 91.5849C94.4714 96.5509 82.7109 98.7459 71.0919 99.537C59.4728 100.328 48.0318 98.8648 37.8394 95.2837C27.6469 91.7026 19.0361 86.121 12.8126 79.061C6.58906 72.001 3.39754 63.3917 2.69537 54.6138" stroke="url(#paint2_linear_598_2602)" stroke-width="3" stroke-linecap="round"/>
<path d="M135 130C137.5 136.5 129.5 144 119.591 150.195C109.56 155.143 97.7688 158.644 86.2748 159.416C74.7808 160.188 63.4592 158.707 53.3695 155.11C43.2797 151.513 34.7516 145.919 28.5829 138.851C22.4142 131.782 18.7088 124.277 17.9999 115.5" stroke="url(#paint3_linear_598_2602)" stroke-width="3" stroke-linecap="round"/>
<defs>
<linearGradient id="paint0_linear_598_2602" x1="-5.39244" y1="66.6586" x2="62.8949" y2="34.8866" gradientUnits="userSpaceOnUse">
<stop stop-color="#E1F4B2"/>
<stop offset="1" stop-color="#75AE48"/>
</linearGradient>
<linearGradient id="paint1_linear_598_2602" x1="132.206" y1="85.8571" x2="12.8779" y2="122.857" gradientUnits="userSpaceOnUse">
<stop stop-color="#75AE48"/>
<stop offset="1" stop-color="#E1F4B2"/>
</linearGradient>
<linearGradient id="paint2_linear_598_2602" x1="122.964" y1="63.0552" x2="0.631726" y2="55.4481" gradientUnits="userSpaceOnUse">
<stop stop-color="#7BAE48"/>
<stop offset="1" stop-color="#E1F4B2"/>
</linearGradient>
<linearGradient id="paint3_linear_598_2602" x1="137.535" y1="123.027" x2="16.4605" y2="115.773" gradientUnits="userSpaceOnUse">
<stop stop-color="#7BAE48"/>
<stop offset="1" stop-color="#E1F4B2"/>
</linearGradient>
</defs>
</svg>
