<svg width="27" height="26" viewBox="0 0 27 26" fill="none" xmlns="http://www.w3.org/2000/svg">
<path d="M7.77206 22.9923V21.7923C7.77206 18.4786 10.4584 15.7923 13.7721 15.7923C17.0857 15.7923 19.7721 18.4786 19.7721 21.7923V22.9923" stroke="#B1B1B1" stroke-width="2" stroke-linecap="round"/>
<path d="M13.7721 15.7923C15.7603 15.7923 17.3721 14.1806 17.3721 12.1923C17.3721 10.2041 15.7603 8.59232 13.7721 8.59232C11.7838 8.59232 10.1721 10.2041 10.1721 12.1923C10.1721 14.1806 11.7838 15.7923 13.7721 15.7923Z" stroke="#B1B1B1" stroke-width="2" stroke-linecap="round" stroke-linejoin="round"/>
<path d="M13.7721 25C20.3995 25 25.7721 19.6274 25.7721 13C25.7721 6.37258 20.3995 1 13.7721 1C7.14465 1 1.77206 6.37258 1.77206 13C1.77206 19.6274 7.14465 25 13.7721 25Z" stroke="#B1B1B1" stroke-width="2"/>
</svg>
