<svg width="19" height="18" viewBox="0 0 19 18" fill="none" xmlns="http://www.w3.org/2000/svg">
<g clip-path="url(#clip0_426_13740)">
<path d="M2.75 13.5H9.5V14.625H1.625V1.125H3.875V0H5V1.125H12.875V0H14V1.125H16.25V9H15.125V5.625H2.75V13.5ZM2.75 2.25V4.5H15.125V2.25H14V3.375H12.875V2.25H5V3.375H3.875V2.25H2.75ZM18.5 10.125V13.5H15.125V12.375H16.7949C16.5312 12.0234 16.2031 11.748 15.8105 11.5488C15.418 11.3496 15.002 11.25 14.5625 11.25C14.2168 11.25 13.8916 11.3086 13.5869 11.4258C13.2822 11.543 13.0039 11.7041 12.752 11.9092C12.5 12.1143 12.2949 12.3633 12.1367 12.6562C11.9785 12.9492 11.8672 13.2627 11.8027 13.5967L10.6865 13.4033C10.7686 12.9287 10.9268 12.4922 11.1611 12.0938C11.3955 11.6953 11.6826 11.3496 12.0225 11.0566C12.3623 10.7637 12.752 10.5352 13.1914 10.3711C13.6309 10.207 14.0879 10.125 14.5625 10.125C15.0957 10.125 15.6055 10.2275 16.0918 10.4326C16.5781 10.6377 17.0059 10.9365 17.375 11.3291V10.125H18.5ZM14.5625 16.875C14.9023 16.875 15.2275 16.8164 15.5381 16.6992C15.8486 16.582 16.127 16.4209 16.373 16.2158C16.6191 16.0107 16.8242 15.7617 16.9883 15.4688C17.1523 15.1758 17.2637 14.8623 17.3223 14.5283L18.4385 14.7217C18.3564 15.1963 18.1982 15.6328 17.9639 16.0312C17.7295 16.4297 17.4424 16.7754 17.1025 17.0684C16.7627 17.3613 16.373 17.5898 15.9336 17.7539C15.4941 17.918 15.0371 18 14.5625 18C14.0293 18 13.5195 17.8975 13.0332 17.6924C12.5469 17.4873 12.1191 17.1885 11.75 16.7959V18H10.625V14.625H14V15.75H12.3301C12.5938 16.1016 12.9219 16.377 13.3145 16.5762C13.707 16.7754 14.123 16.875 14.5625 16.875Z" fill="#B1B1B1"/>
</g>
<defs>
<clipPath id="clip0_426_13740">
<rect width="18" height="18" fill="white" transform="translate(0.5)"/>
</clipPath>
</defs>
</svg>
