<svg width="28" height="28" viewBox="0 0 28 28" fill="none" xmlns="http://www.w3.org/2000/svg">
<path d="M14 28C21.7319 28 28 21.7319 28 14C28 6.26801 21.7319 0 14 0C6.26801 0 0 6.26801 0 14C0 21.7319 6.26801 28 14 28Z" fill="#729B79"/>
<path d="M14 28C21.7319 28 28 21.7319 28 14C28 6.26801 21.7319 0 14 0C6.26801 0 0 6.26801 0 14C0 21.7319 6.26801 28 14 28Z" fill="url(#paint0_linear_293_2546)" fill-opacity="0.2"/>
<path d="M7 14.6999L11.2 18.8999L21 9.09985" stroke="white" stroke-width="2" stroke-linecap="round" stroke-linejoin="round"/>
<defs>
<linearGradient id="paint0_linear_293_2546" x1="14" y1="0" x2="14" y2="28" gradientUnits="userSpaceOnUse">
<stop stop-opacity="0"/>
<stop offset="1"/>
</linearGradient>
</defs>
</svg>
