<svg width="145" height="145" viewBox="0 0 145 145" fill="none" xmlns="http://www.w3.org/2000/svg">
<path d="M72.5 144.5C112.264 144.5 144.5 112.264 144.5 72.5C144.5 32.7355 112.264 0.5 72.5 0.5C32.7355 0.5 0.5 32.7355 0.5 72.5C0.5 112.264 32.7355 144.5 72.5 144.5Z" fill="#729B79" fill-opacity="0.1"/>
<path d="M72.5 144.5C112.264 144.5 144.5 112.264 144.5 72.5C144.5 32.7355 112.264 0.5 72.5 0.5C32.7355 0.5 0.5 32.7355 0.5 72.5C0.5 112.264 32.7355 144.5 72.5 144.5Z" fill="url(#paint0_linear_311_2074)" fill-opacity="0.2"/>
<path d="M72.5 133.5C106.189 133.5 133.5 106.189 133.5 72.5C133.5 38.8106 106.189 11.5 72.5 11.5C38.8106 11.5 11.5 38.8106 11.5 72.5C11.5 106.189 38.8106 133.5 72.5 133.5Z" fill="#729B79" fill-opacity="0.33"/>
<path d="M72.5 133.5C106.189 133.5 133.5 106.189 133.5 72.5C133.5 38.8106 106.189 11.5 72.5 11.5C38.8106 11.5 11.5 38.8106 11.5 72.5C11.5 106.189 38.8106 133.5 72.5 133.5Z" fill="url(#paint1_linear_311_2074)" fill-opacity="0.2"/>
<path d="M72.5 122.5C100.114 122.5 122.5 100.114 122.5 72.5C122.5 44.8857 100.114 22.5 72.5 22.5C44.8857 22.5 22.5 44.8857 22.5 72.5C22.5 100.114 44.8857 122.5 72.5 122.5Z" fill="#729B79"/>
<path d="M72.5 122.5C100.114 122.5 122.5 100.114 122.5 72.5C122.5 44.8857 100.114 22.5 72.5 22.5C44.8857 22.5 22.5 44.8857 22.5 72.5C22.5 100.114 44.8857 122.5 72.5 122.5Z" fill="url(#paint2_linear_311_2074)" fill-opacity="0.2"/>
<path d="M47.5 74.9995L62.5 89.9995L97.5 54.9995" stroke="white" stroke-width="6" stroke-linecap="round" stroke-linejoin="round"/>
<defs>
<linearGradient id="paint0_linear_311_2074" x1="72.5" y1="0.5" x2="72.5" y2="144.5" gradientUnits="userSpaceOnUse">
<stop stop-color="#729B79" stop-opacity="0"/>
<stop offset="1" stop-color="white"/>
</linearGradient>
<linearGradient id="paint1_linear_311_2074" x1="72.5" y1="11.5" x2="72.5" y2="133.5" gradientUnits="userSpaceOnUse">
<stop stop-color="#729B79" stop-opacity="0"/>
<stop offset="1" stop-color="white"/>
</linearGradient>
<linearGradient id="paint2_linear_311_2074" x1="72.5" y1="22.5" x2="72.5" y2="122.5" gradientUnits="userSpaceOnUse">
<stop stop-opacity="0"/>
<stop offset="1"/>
</linearGradient>
</defs>
</svg>
