<svg width="42" height="42" viewBox="0 0 42 42" fill="none" xmlns="http://www.w3.org/2000/svg">
<g clip-path="url(#clip0_311_2673)">
<path d="M21 40.0274C32.0456 40.0274 41 31.2907 41 20.5137C41 9.73657 32.0456 1 21 1C9.9543 1 1 9.73657 1 20.5137C1 31.2907 9.9543 40.0274 21 40.0274Z" fill="#729B79"/>
<path d="M21 40.0274C32.0456 40.0274 41 31.2907 41 20.5137C41 9.73657 32.0456 1 21 1C9.9543 1 1 9.73657 1 20.5137C1 31.2907 9.9543 40.0274 21 40.0274Z" fill="url(#paint0_linear_311_2673)" fill-opacity="0.2"/>
<g filter="url(#filter0_d_311_2673)">
<path d="M13 21.7143L17.5 26L28 16" stroke="white" stroke-width="3" stroke-linecap="round" stroke-linejoin="round" shape-rendering="crispEdges"/>
</g>
</g>
<rect x="1" y="1" width="40" height="40" rx="20" stroke="white" stroke-width="2"/>
<defs>
<filter id="filter0_d_311_2673" x="11.5" y="14.5" width="18" height="15" filterUnits="userSpaceOnUse" color-interpolation-filters="sRGB">
<feFlood flood-opacity="0" result="BackgroundImageFix"/>
<feColorMatrix in="SourceAlpha" type="matrix" values="0 0 0 0 0 0 0 0 0 0 0 0 0 0 0 0 0 0 127 0" result="hardAlpha"/>
<feOffset dy="2"/>
<feComposite in2="hardAlpha" operator="out"/>
<feColorMatrix type="matrix" values="0 0 0 0 0 0 0 0 0 0 0 0 0 0 0 0 0 0 0.15 0"/>
<feBlend mode="normal" in2="BackgroundImageFix" result="effect1_dropShadow_311_2673"/>
<feBlend mode="normal" in="SourceGraphic" in2="effect1_dropShadow_311_2673" result="shape"/>
</filter>
<linearGradient id="paint0_linear_311_2673" x1="21" y1="1" x2="21" y2="40.0274" gradientUnits="userSpaceOnUse">
<stop stop-opacity="0"/>
<stop offset="1"/>
</linearGradient>
<clipPath id="clip0_311_2673">
<rect x="2" y="2" width="38" height="38" rx="19" fill="white"/>
</clipPath>
</defs>
</svg>
