<svg width="59" height="50" viewBox="0 0 59 50" fill="none" xmlns="http://www.w3.org/2000/svg">
<path d="M13.6154 18.1823C13.6154 17.5795 13.8545 17.0014 14.28 16.5752C14.7056 16.1489 15.2828 15.9095 15.8846 15.9095L43.1154 15.9095C43.7172 15.9095 44.2944 16.1489 44.72 16.5752C45.1455 17.0014 45.3846 17.5795 45.3846 18.1823C45.3846 18.785 45.1455 19.3631 44.72 19.7894C44.2944 20.2156 43.7172 20.455 43.1154 20.455H15.8846C15.2828 20.455 14.7056 20.2156 14.28 19.7894C13.8545 19.3631 13.6154 18.785 13.6154 18.1823ZM15.8846 29.5462H43.1154C43.7172 29.5462 44.2944 29.3067 44.72 28.8805C45.1455 28.4543 45.3846 27.8762 45.3846 27.2734C45.3846 26.6706 45.1455 26.0925 44.72 25.6663C44.2944 25.2401 43.7172 25.0006 43.1154 25.0006H15.8846C15.2828 25.0006 14.7056 25.2401 14.28 25.6663C13.8545 26.0925 13.6154 26.6706 13.6154 27.2734C13.6154 27.8762 13.8545 28.4543 14.28 28.8805C14.7056 29.3067 15.2828 29.5462 15.8846 29.5462ZM59 4.54557V47.7284C58.9998 48.1158 58.9007 48.4967 58.7122 48.8349C58.5237 49.1732 58.252 49.4576 57.923 49.6611C57.5939 49.8646 57.2183 49.9805 56.8319 49.9977C56.4455 50.015 56.0612 49.9331 55.7153 49.7597L47.6538 45.7227L39.5924 49.7597C39.2771 49.9177 38.9295 50 38.5769 50C38.2244 50 37.8767 49.9177 37.5614 49.7597L29.5 45.7227L21.4386 49.7597C21.1233 49.9177 20.7756 50 20.4231 50C20.0705 50 19.7229 49.9177 19.4076 49.7597L11.3462 45.7227L3.28471 49.7597C2.93883 49.9331 2.55446 50.015 2.16808 49.9977C1.7817 49.9805 1.40614 49.8646 1.07705 49.6611C0.747961 49.4576 0.476269 49.1732 0.287766 48.8349C0.0992634 48.4967 0.000206478 48.1158 0 47.7284L0 4.54557C0 3.34001 0.478158 2.18382 1.32928 1.33136C2.18041 0.478906 3.33479 0 4.53846 0L54.4615 0C55.6652 0 56.8196 0.478906 57.6707 1.33136C58.5218 2.18382 59 3.34001 59 4.54557ZM54.4615 4.54557L4.53846 4.54557L4.53846 44.0522L10.3307 41.1487C10.6459 40.9907 10.9936 40.9085 11.3462 40.9085C11.6987 40.9085 12.0464 40.9907 12.3616 41.1487L20.4231 45.1886L28.4845 41.1487C28.7998 40.9907 29.1475 40.9085 29.5 40.9085C29.8525 40.9085 30.2002 40.9907 30.5155 41.1487L38.5769 45.1886L46.6384 41.1487C46.9536 40.9907 47.3013 40.9085 47.6538 40.9085C48.0064 40.9085 48.3541 40.9907 48.6693 41.1487L54.4615 44.0522V4.54557Z" fill="url(#paint0_linear_45_206)"/>
<defs>
<linearGradient id="paint0_linear_45_206" x1="-19.5" y1="47.5" x2="68.5" y2="2.15355e-06" gradientUnits="userSpaceOnUse">
<stop stop-color="#729B94"/>
<stop offset="1" stop-color="#729B79"/>
</linearGradient>
</defs>
</svg>
